<svg width="138" height="53" viewBox="0 0 138 53" fill="none" xmlns="http://www.w3.org/2000/svg">
<path d="M54.2349 20.9713C54.6906 21.503 55.2476 21.9587 55.9312 22.3638C57.0705 23.0727 58.7668 23.7563 61.0708 23.7563C65.2483 23.7563 67.7802 21.2245 67.7802 18.3129C67.7802 12.1352 58.9188 13.4771 58.9188 10.4642C58.9188 9.45145 59.653 8.6919 61.5772 8.6919C62.5899 8.6919 63.4001 9.07168 63.9824 9.45145C64.3116 9.67932 64.5901 9.9325 64.8686 10.211L67.4004 7.67917C66.97 7.24876 66.4889 6.84366 65.9066 6.48921C64.9192 5.88157 63.4001 5.27393 61.4506 5.27393C57.3997 5.27393 54.9944 7.67917 54.9944 10.4642C54.9944 16.6419 63.8558 15.3 63.8558 18.3129C63.8558 19.4522 62.9697 20.3383 60.9442 20.3383C59.6024 20.3383 58.5643 19.8826 57.8554 19.4016C57.425 19.1231 57.0705 18.7939 56.7667 18.4395L54.2349 20.9713Z" fill="#252525"/>
<path d="M70.6908 19.0724C70.6908 22.0093 72.3365 23.6297 74.8683 23.6297C75.5013 23.6297 76.0836 23.5538 76.4887 23.4525C76.7166 23.3765 76.9444 23.3259 77.147 23.2499V20.0852C77.0204 20.1358 76.8938 20.1864 76.7419 20.2117C76.4634 20.2877 76.1342 20.3383 75.7545 20.3383C74.7417 20.3383 74.1088 19.7054 74.1088 18.5661V14.3885H76.8938V11.2237H74.1088V7.42598H71.0706V9.70464C71.0706 10.7174 70.6148 11.2237 69.6781 11.2237H68.5387V14.3885H70.6908V19.0724Z" fill="#252525"/>
<path d="M86.0242 23.3765H89.4422V15.6544C89.4422 12.8947 87.2901 10.7174 84.1253 10.7174C82.4796 10.7174 81.239 11.325 80.3529 11.9326C79.8465 12.2871 79.4161 12.6922 79.0617 13.1226L81.0871 15.1481C81.2897 14.8949 81.5429 14.667 81.8214 14.4645C82.3024 14.0847 82.986 13.7556 83.8721 13.7556C85.1634 13.7556 85.8976 14.5151 86.0242 15.4013L82.0999 16.1102C79.7959 16.5153 78.4287 18.0597 78.4287 20.0852C78.4287 22.1106 79.9478 23.6297 82.2265 23.6297C83.4164 23.6297 84.3532 23.2246 84.9608 22.7436C85.3153 22.4904 85.6191 22.1866 85.8976 21.8574H86.0242V23.3765ZM86.0242 18.0597C86.0242 19.7054 84.8849 20.8447 83.3658 20.8447C82.353 20.8447 81.8467 20.3637 81.8467 19.5788C81.8467 18.9458 82.353 18.4901 83.2392 18.3129L86.0242 17.8065V18.0597Z" fill="#252525"/>
<path d="M91.6012 23.3765H95.0192V17.5533C95.0192 15.5279 96.2851 14.2619 97.9308 14.2619C98.3106 14.2619 98.5891 14.3126 98.7916 14.3379L99.0701 14.3885V11.1502H98.8169C97.6016 11.1502 96.6902 11.2237 96.0825 11.7301C95.7281 12.0339 95.4243 12.3631 95.1458 12.7428H95.0192V10.9706H91.6012V23.3765Z" fill="#252525"/>
<path d="M102.039 19.0724C102.039 22.0093 103.685 23.6297 106.217 23.6297C106.85 23.6297 107.432 23.5538 107.837 23.4525C108.065 23.3765 108.293 23.3259 108.495 23.2499V20.0852C108.369 20.1358 108.242 20.1864 108.09 20.2117C107.812 20.2877 107.483 20.3383 107.103 20.3383C106.09 20.3383 105.457 19.7054 105.457 18.5661V14.3885H108.242V11.2237H105.457V7.42598H102.419V9.70464C102.419 10.7174 101.963 11.2237 101.026 11.2237H99.887V14.3885H102.039V19.0724Z" fill="#252525"/>
<path d="M110.41 18.4395C110.41 21.6043 112.435 23.6297 114.967 23.6297C116.157 23.6297 117.094 23.1234 117.702 22.617C118.056 22.3132 118.36 21.984 118.638 21.6043H118.765V23.3765H122.183V10.9706H118.765V17.5533C118.765 19.199 117.626 20.3383 116.107 20.3383C114.689 20.3383 113.828 19.4522 113.828 17.9331V10.9706H110.41V18.4395Z" fill="#252525"/>
<path d="M124.961 28.6934H128.379V21.6043H128.506C128.759 21.984 129.088 22.3132 129.468 22.617C130.151 23.1234 131.088 23.6297 132.43 23.6297C135.367 23.6297 138 20.9713 138 17.1735C138 13.4011 135.367 10.7174 132.43 10.7174C131.088 10.7174 130.151 11.2237 129.468 11.7301C129.088 12.0339 128.759 12.3631 128.506 12.7428H128.379V10.9706H124.961V28.6934ZM131.417 20.4649C129.645 20.4649 128.252 19.0724 128.252 17.1735C128.252 15.2747 129.645 13.8822 131.417 13.8822C133.19 13.8822 134.582 15.2747 134.582 17.1735C134.582 19.0724 133.19 20.4649 131.417 20.4649Z" fill="#252525"/>
<path d="M54.2349 45.424C54.6906 45.9557 55.2476 46.4114 55.9312 46.8165C57.0705 47.5254 58.7668 48.209 61.0708 48.209C65.2483 48.209 67.7802 45.6772 67.7802 42.7656C67.7802 36.5879 58.9188 37.9298 58.9188 34.9169C58.9188 33.9042 59.653 33.1446 61.5772 33.1446C62.5899 33.1446 63.4001 33.5244 63.9824 33.9042C64.3116 34.132 64.5901 34.3852 64.8686 34.6637L67.4004 32.1319C66.97 31.7015 66.4889 31.2964 65.9066 30.9419C64.9192 30.3343 63.4001 29.7267 61.4506 29.7267C57.3997 29.7267 54.9944 32.1319 54.9944 34.9169C54.9944 41.0946 63.8558 39.7527 63.8558 42.7656C63.8558 43.9049 62.9697 44.7911 60.9442 44.7911C59.6024 44.7911 58.5643 44.3353 57.8554 43.8543C57.425 43.5758 57.0705 43.2467 56.7667 42.8922L54.2349 45.424Z" fill="#252525"/>
<path d="M70.6908 43.5252C70.6908 46.4621 72.3365 48.0825 74.8683 48.0825C75.5013 48.0825 76.0836 48.0065 76.4887 47.9052C76.7166 47.8293 76.9444 47.7786 77.147 47.7027V44.5379C77.0204 44.5885 76.8938 44.6392 76.7419 44.6645C76.4634 44.7404 76.1342 44.7911 75.7545 44.7911C74.7417 44.7911 74.1088 44.1581 74.1088 43.0188V38.8413H76.8938V35.6765H74.1088V31.8787H71.0706V34.1574C71.0706 35.1701 70.6148 35.6765 69.6781 35.6765H68.5387V38.8413H70.6908V43.5252Z" fill="#252525"/>
<path d="M86.0242 47.8293H89.4422V40.1072C89.4422 37.3475 87.2901 35.1701 84.1253 35.1701C82.4796 35.1701 81.239 35.7777 80.3529 36.3854C79.8465 36.7398 79.4161 37.1449 79.0617 37.5753L81.0871 39.6008C81.2897 39.3476 81.5429 39.1198 81.8214 38.9172C82.3024 38.5374 82.986 38.2083 83.8721 38.2083C85.1634 38.2083 85.8976 38.9678 86.0242 39.854L82.0999 40.5629C79.7959 40.968 78.4287 42.5124 78.4287 44.5379C78.4287 46.5634 79.9478 48.0825 82.2265 48.0825C83.4164 48.0825 84.3532 47.6774 84.9608 47.1963C85.3153 46.9431 85.6191 46.6393 85.8976 46.3102H86.0242V47.8293ZM86.0242 42.5124C86.0242 44.1581 84.8849 45.2974 83.3658 45.2974C82.353 45.2974 81.8467 44.8164 81.8467 44.0315C81.8467 43.3986 82.353 42.9428 83.2392 42.7656L86.0242 42.2592V42.5124Z" fill="#252525"/>
<path d="M100.463 43.3986C100.235 43.6771 99.9562 43.9302 99.6524 44.1581C99.1207 44.5379 98.3612 44.9177 97.4244 44.9177C95.6521 44.9177 94.2596 43.5252 94.2596 41.6263C94.2596 39.7274 95.6521 38.3349 97.4244 38.3349C98.3612 38.3349 99.1207 38.7147 99.6524 39.0944C99.9562 39.3223 100.235 39.5755 100.463 39.854L102.615 37.7019C102.286 37.2209 101.855 36.8158 101.349 36.436C100.463 35.8031 99.222 35.1701 97.4244 35.1701C93.7533 35.1701 90.8416 38.0817 90.8416 41.6263C90.8416 45.1708 93.7533 48.0825 97.4244 48.0825C99.222 48.0825 100.463 47.4495 101.349 46.8165C101.855 46.4368 102.286 46.0317 102.615 45.5506L100.463 43.3986Z" fill="#252525"/>
<path d="M104.375 47.8293H107.793V44.9177L109.439 43.0188L112.604 47.8293H116.528L111.717 40.6135L116.275 35.4233H112.224L107.793 40.4869V30.1064H104.375V47.8293Z" fill="#252525"/>
<path d="M20.0773 28.7398V2.63983C20.0773 1.67784 19.0971 1.02664 18.2103 1.3995L0.824004 8.70965C0.324735 8.91957 0 9.40838 0 9.94999V28.7398C0 29.4829 0.602405 30.0853 1.34551 30.0853H18.7318C19.4749 30.0853 20.0773 29.4829 20.0773 28.7398Z" fill="#01C08B"/>
<path d="M23.1653 24.1299V50.2298C23.1653 51.1918 24.1456 51.843 25.0324 51.4701L42.4187 44.16C42.9179 43.9501 43.2427 43.4612 43.2427 42.9196V24.1299C43.2427 23.3868 42.6403 22.7844 41.8972 22.7844H24.5108C23.7677 22.7844 23.1653 23.3868 23.1653 24.1299Z" fill="#FBC939"/>
<path d="M23.1653 18.3511V2.69256C23.1653 1.71692 24.1712 1.06562 25.0614 1.46486L42.4478 9.26225C42.9314 9.47916 43.2427 9.95985 43.2427 10.4899V18.3511C43.2427 19.0942 42.6403 19.6966 41.8972 19.6966H24.5108C23.7677 19.6966 23.1653 19.0942 23.1653 18.3511Z" fill="#DE564E"/>
<path d="M20.0773 34.5315V50.19C20.0773 51.1657 19.0714 51.8169 18.1812 51.4177L0.794913 43.6203C0.311239 43.4034 0 42.9227 0 42.3926V34.5315C0 33.7884 0.602405 33.1859 1.34551 33.1859H18.7318C19.4749 33.1859 20.0773 33.7884 20.0773 34.5315Z" fill="#46BEE0"/>
</svg>
