<svg width="256" height="150" viewBox="0 0 256 100" fill="none" xmlns="http://www.w3.org/2000/svg">
  <g transform="translate(0.000000,40.000000)">
    <path d="M94.5606 20H91.7526V7.136C91.7526 6.048 92.0726 5.176 92.7126 4.52C93.3526 3.848 94.3286 3.512 95.6406 3.512C96.7926 3.512 97.7046 3.792 98.3766 4.352C99.0486 4.896 99.4966 5.68 99.7206 6.704L102.001 16.616C102.145 17.224 102.505 17.528 103.081 17.528C103.641 17.528 104.001 17.224 104.161 16.616L106.441 6.704C106.665 5.68 107.089 4.896 107.713 4.352C108.353 3.792 109.257 3.512 110.425 3.512C111.737 3.512 112.713 3.848 113.353 4.52C113.993 5.176 114.313 6.048 114.313 7.136V20H111.505V7.28C111.505 6.96 111.401 6.712 111.193 6.536C111.001 6.344 110.721 6.248 110.353 6.248C110.017 6.248 109.761 6.328 109.585 6.488C109.409 6.632 109.289 6.84 109.225 7.112L106.897 17.024C106.641 18.096 106.217 18.912 105.625 19.472C105.033 20.016 104.177 20.288 103.057 20.288C101.921 20.288 101.041 20.008 100.417 19.448C99.8086 18.888 99.3846 18.08 99.1446 17.024L96.8406 7.112C96.7766 6.84 96.6486 6.632 96.4566 6.488C96.2806 6.328 96.0326 6.248 95.7126 6.248C95.3446 6.248 95.0566 6.344 94.8486 6.536C94.6566 6.712 94.5606 6.96 94.5606 7.28V20ZM119.822 20H116.702L122.39 5.6C122.694 4.832 123.118 4.296 123.662 3.992C124.222 3.672 124.934 3.512 125.798 3.512C126.646 3.512 127.342 3.672 127.886 3.992C128.446 4.296 128.87 4.832 129.158 5.6L134.63 20H131.486L126.566 6.968C126.422 6.6 126.158 6.416 125.774 6.416C125.39 6.416 125.118 6.6 124.958 6.968L119.822 20ZM147.258 3.8V14.408C147.258 15.224 147.146 15.976 146.922 16.664C146.698 17.336 146.346 17.92 145.866 18.416C145.386 18.912 144.762 19.304 143.994 19.592C143.242 19.864 142.33 20 141.258 20H135.762V17.168H141.09C141.73 17.168 142.258 17.096 142.674 16.952C143.106 16.808 143.45 16.616 143.706 16.376C143.962 16.12 144.138 15.824 144.234 15.488C144.346 15.136 144.402 14.768 144.402 14.384V3.8H147.258ZM159.763 3.8C160.675 3.8 161.459 3.936 162.115 4.208C162.771 4.464 163.307 4.816 163.723 5.264C164.155 5.696 164.467 6.208 164.659 6.8C164.867 7.392 164.971 8.008 164.971 8.648C164.971 9.16 164.907 9.672 164.779 10.184C164.651 10.68 164.451 11.152 164.179 11.6C163.907 12.032 163.555 12.416 163.123 12.752C162.691 13.088 162.163 13.344 161.539 13.52L165.307 20H162.163L158.467 13.736H154.243C153.971 13.736 153.835 13.872 153.835 14.144V20H151.003V13.592C151.003 12.68 151.203 12.024 151.603 11.624C152.003 11.224 152.651 11.024 153.547 11.024H159.859C160.259 11.024 160.603 10.96 160.891 10.832C161.179 10.704 161.411 10.536 161.587 10.328C161.763 10.12 161.891 9.88 161.971 9.608C162.067 9.336 162.115 9.056 162.115 8.768C162.115 8.192 161.931 7.696 161.563 7.28C161.211 6.848 160.643 6.632 159.859 6.632H150.979V3.8H159.763Z" fill="#CC2453"/>
  </g>
</svg>
