<svg x="0" y="0" version="1.1" viewBox="0 0 841.89 475.28" overflow="hidden" fill="black" xmlns="http://www.w3.org/2000/svg">
<path d="M4.44 251.63L4.44 341.09 10.15 341.09 10.15 269.6 49.93 325.89 89.7 269.6 89.7 341.09 95.41 341.09 95.41 251.63 49.93 315.99z" class="st0"></path>
<path d="M208.07 252.98c-8.31 0-15.51 4.8-19.02 11.76-7.89-7.28-18.4-11.76-29.96-11.76-24.42 0-44.29 19.87-44.29 44.29 0 24.42 19.87 44.29 44.29 44.29s44.29-19.87 44.29-44.29c0-.76-.08-1.51-.11-2.26 1.55.36 3.15.57 4.8.57 11.74 0 21.3-9.55 21.3-21.3-.01-11.75-9.56-21.3-21.3-21.3zm-10.4 44.29c0 21.27-17.31 38.58-38.58 38.58s-38.58-17.31-38.58-38.58 17.31-38.58 38.58-38.58c11.02 0 20.95 4.67 27.99 12.11-.19 1.14-.31 2.29-.31 3.48 0 7.84 4.27 14.69 10.6 18.39.18 1.5.3 3.04.3 4.6zm10.4-7.41c-1.94 0-3.8-.37-5.51-1.03a44.105 44.105 0 00-9.22-19.61c2.11-6.12 7.91-10.53 14.73-10.53 8.59 0 15.59 6.99 15.59 15.59s-7 15.58-15.59 15.58z" class="st0"></path>
<path d="M307.23 324.81L247.47 252.69 247.47 341.49 253.18 341.49 253.18 268.53 312.94 340.65 312.94 252.65 307.23 252.65z" class="st0"></path>
<path d="M411.28 258.69L445.28 258.69 445.28 341.09 450.99 341.09 450.99 258.69 484.98 258.69 484.98 252.98 411.28 252.98z" class="st0"></path>
<path d="M367.06 258.69c18.64 0 22.91 10.47 24.73 14.94.23.56.42 1.02.59 1.38l5.14-2.48c-.13-.27-.27-.62-.44-1.05-2.06-5.06-7.53-18.49-30.02-18.49-23.55 0-31.94 12.18-31.94 23.57 0 5.01 2.26 21.49 31.37 23.37 15.93 1.03 25.07 7.56 25.07 17.93 0 4.31-1.79 18.39-24.89 18.39-20.96 0-25.76-15.23-25.95-15.87l-5.49 1.58c.06.2 6.07 19.99 31.44 19.99 29.12 0 30.6-20.08 30.6-24.1 0-5.08-2.19-21.81-30.41-23.63-16.3-1.05-26.03-7.65-26.03-17.67 0-4.19 1.89-17.86 26.23-17.86zM563.93 277.35c0-16.74-15.83-24.37-30.54-24.37h-28.55v88.11h5.71v-82.4h22.84c11.96 0 24.83 5.84 24.83 18.66 0 14.49-12.31 19.65-23.84 19.65h-14.1l38.61 45.93 4.37-3.67-30.72-36.54h1.84c17.68-.01 29.55-10.2 29.55-25.37zM647.84 305.44c0 7.11-2.04 30.32-28.32 30.32-21.23 0-26.89-19.24-26.89-30.61v-52.51h-5.71v52.51c0 12.56 6.81 36.32 32.6 36.32 25.09 0 34.03-18.61 34.03-36.03v-52.79h-5.71v52.79zM717.8 335.76c-21.39 0-38.8-17.41-38.8-38.8s17.41-38.8 38.8-38.8c10.36 0 20.11 4.04 27.44 11.36l4.04-4.04c-8.41-8.41-19.58-13.04-31.47-13.04-24.54 0-44.51 19.97-44.51 44.51s19.97 44.51 44.51 44.51c11.91 0 23.1-4.64 31.51-13.07l-4.04-4.03c-7.35 7.35-17.1 11.4-27.48 11.4z" class="st0"></path>
<path d="M801.76 298.87L835.49 252.65 828.42 252.65 776.53 323.77 776.53 252.65 770.82 252.65 770.82 341.28 798.29 303.63 829.67 341.49 837.08 341.49z" class="st0"></path>
</svg>