<svg width="136" height="131" viewBox="0 0 897 185" fill="none" xmlns="http://www.w3.org/2000/svg">
<path d="M27.461 69.2335H0V38.7042H91.281V69.2335H63.82V145.94H27.461V69.2335Z" fill="white"></path>
<path d="M112.717 38.7042H149.076V74.6029H178.531V38.7042H214.89V145.94H178.531V108.354H149.076V145.94H112.717V38.7042Z" fill="white"></path>
<path d="M241.788 38.7042H321.256V69.2335H278.147V78.5917H308.676V106.053H278.147V115.411H321.256V145.94H241.788V38.7042Z" fill="white"></path>
<path d="M381.118 38.7042H438.802C449.541 38.7042 458.183 41.3633 464.728 46.6817C471.274 51.8977 474.547 59.3127 474.547 68.9266C474.547 73.0177 473.626 76.9041 471.785 80.5861C470.047 84.268 467.49 87.2851 464.115 89.6375C469.024 91.9898 472.501 94.9558 474.547 98.5354C476.695 102.115 477.769 106.769 477.769 112.496C477.769 119.246 476.132 125.178 472.859 130.292C469.587 135.304 465.189 139.19 459.666 141.951C454.143 144.611 448.006 145.94 441.256 145.94H381.118V38.7042ZM428.369 79.3587C431.54 79.3587 433.841 78.7451 435.273 77.5178C436.807 76.1882 437.574 74.0404 437.574 71.0744C437.574 68.313 436.807 66.3186 435.273 65.0913C433.841 63.864 431.54 63.2503 428.369 63.2503H416.403V79.3587H428.369ZM430.364 121.394C434.046 121.394 436.705 120.678 438.341 119.246C439.978 117.814 440.796 115.513 440.796 112.343C440.796 109.172 439.978 106.871 438.341 105.439C436.705 103.905 434.046 103.138 430.364 103.138H416.403V121.394H430.364Z" fill="white"></path>
<path d="M501.5 38.7042H537.859V115.411H577.9V145.94H501.5V38.7042Z" fill="white"></path>
<path d="M754.637 91.7852L716.744 38.7042H758.165L775.348 62.7901L792.53 38.7042H834.105L796.059 91.7852L834.872 145.94H793.297L775.348 120.78L757.398 145.94H715.823L754.637 91.7852Z" fill="white"></path>
<path d="M614.507 39.9125L677.388 24.5585L725.062 93.1052L662.177 108.463L614.507 39.9125Z" fill="#FFCD4C"></path>
<path d="M614.825 40.188L578.544 93.7943L626.215 162.345L662.496 108.739L614.825 40.188Z" fill="#A762FF"></path>
<path d="M662.178 108.464L725.062 93.1061L686.743 143.789L625.897 162.071L662.178 108.464Z" fill="#1E4FFF"></path>
<path d="M856.218 146.039L836.902 128.197L849.406 96.6653L868.725 114.508L856.218 146.039Z" fill="#A762FF"></path>
<path d="M856.238 145.868L882.533 146.115L895.04 114.584L868.744 114.336L856.238 145.868Z" fill="#4260FF"></path>
<path d="M868.725 114.507L849.406 96.6642L875.169 98.2584L895.02 114.755L868.725 114.507Z" fill="#FFCD4D"></path>
</svg>